<svg width="22" height="24" viewBox="0 0 22 24" fill="none" xmlns="http://www.w3.org/2000/svg">
<path d="M11 23.625C5.11328 23.625 0.34375 18.4219 0.34375 12C0.34375 5.57812 5.11328 0.375 11 0.375C16.8867 0.375 21.6562 5.57812 21.6562 12C21.6562 18.4219 16.8867 23.625 11 23.625ZM15.9844 9.9375H11V6.61406C11 6.1125 10.4414 5.85938 10.1191 6.21563L5.20781 11.6016C5.00586 11.8219 5.00586 12.1734 5.20781 12.3937L10.1191 17.7797C10.4457 18.1359 11 17.8828 11 17.3812V14.0625H15.9844C16.268 14.0625 16.5 13.8094 16.5 13.5V10.5C16.5 10.1906 16.268 9.9375 15.9844 9.9375Z" fill="#219EBC"/>
</svg>
