<svg width="220" height="148" viewBox="0 0 220 148" fill="none" xmlns="http://www.w3.org/2000/svg">
<g clip-path="url(#clip0)">
<path opacity="0.2" d="M17.3 134C17.3 134 -20.5 66.4001 15.8 35.7001C53.3 3.80005 84 27.8001 98.2 26.2001C122 23.5001 144.1 -14.1999 194.2 5.80006C250.1 28.0001 196.9 134 196.9 134H17.3Z" fill="#FFB703"/>
<path d="M108.3 147.8C165.075 147.8 211.1 143.099 211.1 137.3C211.1 131.501 165.075 126.8 108.3 126.8C51.5251 126.8 5.5 131.501 5.5 137.3C5.5 143.099 51.5251 147.8 108.3 147.8Z" fill="#8ECAE6"/>
<path opacity="0.1" d="M175.8 136.2C175.8 140 145.6 143.1 108.2 143.1C70.8 143.1 40.6 140 40.6 136.2C40.6 132.4 70.8 129.3 108.2 129.3C145.6 129.3 175.8 132.4 175.8 136.2Z" fill="#023047"/>
<path d="M37.8 123.7C37.8 123.7 11.6 69.8002 31.7 54.7002C51.8 39.6002 156.3 22.5002 180.8 46.4002C196.4 61.6002 176.2 123.8 176.2 123.8H37.8V123.7Z" fill="#219EBC"/>
<path opacity="0.1" d="M25.2 85.9001C25.2 85.9001 42.7 81.1001 49.9 84.7001C57.1 88.3001 55.8 105.8 55.8 105.8C55.8 105.8 84.1 96.5001 106.5 106.3C106.5 106.3 128.1 96.5001 154.4 104.9C154.4 104.9 152.9 85.2001 161.2 81.2001C169.5 77.2001 185.7 81.2001 185.7 81.2001L177.1 123.7H33.4L25.2 85.9001Z" fill="#023047"/>
<path d="M20 92.3001C21.5 82.5001 45.2 86.1001 48.1 88.7001C50.9 91.3001 56.1 125.7 53.2 125.7C50.4 125.7 32.9 125.7 31.3 125.7C29.6 125.7 18.3 102.8 20 92.3001Z" fill="#219EBC"/>
<path d="M159.9 125.7C159.9 125.7 175.8 125.7 179.2 125.7C182.6 125.7 196.1 92.7001 190.1 84.9001C185.2 78.6001 165.5 81.3001 162 85.1001C156.6 91.1001 155.9 117.6 159.9 125.7Z" fill="#219EBC"/>
<path d="M47.9 123.7H106.5C106.5 123.7 106.8 111 98.1 108.3C89.4 105.6 62.5 105.5 56.4 108.3C50.3 111.1 47.9 123.7 47.9 123.7Z" fill="#219EBC"/>
<path d="M106.5 123.7H165.1C165.1 123.7 165.4 111 156.7 108.3C148 105.6 121.1 105.5 115 108.3C108.9 111.2 106.5 123.7 106.5 123.7Z" fill="#219EBC"/>
<path d="M37.3 125.7H45.6C45.6 125.7 45.6 137.3 41.6 137.3C37.6 137.3 37.3 125.7 37.3 125.7Z" fill="#FFB703"/>
<path d="M166.2 125.7H174.5C174.5 125.7 174.5 137.3 170.5 137.3C166.6 137.3 166.2 125.7 166.2 125.7Z" fill="#FFB703"/>
<g opacity="0.1">
<path opacity="0.1" d="M52.1 71.7001C52.2 71.0001 52.4 70.3001 52.8 69.7001C53.1 69.1001 53.5 68.5001 54 68.0001C54.9 67.0001 56.2 66.2001 57.5 65.9001C57 66.4001 56.5 66.8001 56.1 67.3001C55.6 67.8001 55.2 68.2001 54.8 68.7001C53.9 69.7001 53 70.7001 52.1 71.7001Z" fill="#023047"/>
<path opacity="0.1" d="M51.7 66.1001C52.4 66.2001 53.1 66.4001 53.7 66.8001C54.3 67.1001 54.9 67.5001 55.4 68.0001C56.4 68.9001 57.2 70.2001 57.5 71.5001C57 71.0001 56.6 70.5001 56.1 70.1001C55.6 69.6001 55.2 69.2001 54.7 68.8001C53.6 67.9001 52.7 67.1001 51.7 66.1001Z" fill="#023047"/>
</g>
<g opacity="0.1">
<path opacity="0.1" d="M64.8 86.9001C64.9 86.2001 65.1 85.5001 65.5 84.9001C65.8 84.3001 66.2 83.7001 66.7 83.2001C67.6 82.2001 68.9 81.4001 70.2 81.1001C69.7 81.6001 69.2 82.0001 68.8 82.5001C68.3 83.0001 67.9 83.4001 67.5 83.9001C66.6 84.9001 65.8 85.9001 64.8 86.9001Z" fill="#023047"/>
<path opacity="0.1" d="M64.4 81.3C65.1 81.4 65.8 81.6 66.4 82C67 82.3 67.6 82.7 68.1 83.2C69.1 84.1 69.9 85.4 70.2 86.7C69.7 86.2 69.3 85.7 68.8 85.3C68.3 84.8 67.9 84.4 67.4 84C66.4 83.1 65.4 82.3 64.4 81.3Z" fill="#023047"/>
</g>
<g opacity="0.1">
<path opacity="0.1" d="M90.0001 86.9001C90.1001 86.2001 90.3001 85.5001 90.7001 84.9001C91.0001 84.3001 91.4001 83.7001 91.9001 83.2001C92.8001 82.2001 94.1001 81.4001 95.4001 81.1001C94.9001 81.6001 94.4001 82.0001 94.0001 82.5001C93.5001 83.0001 93.1001 83.4001 92.7001 83.9001C91.8001 84.9001 91.0001 85.9001 90.0001 86.9001Z" fill="#023047"/>
<path opacity="0.1" d="M89.6 81.3C90.3 81.4 91 81.6 91.6 82C92.2 82.3 92.8 82.7 93.3 83.2C94.3 84.1 95.1 85.4 95.4 86.7C94.9 86.2 94.5 85.7 94 85.3C93.5 84.8 93.1 84.4 92.6 84C91.6 83.1 90.6 82.3 89.6 81.3Z" fill="#023047"/>
</g>
<g opacity="0.1">
<path opacity="0.1" d="M115.3 86.9001C115.4 86.2001 115.6 85.5001 116 84.9001C116.3 84.3001 116.7 83.7001 117.2 83.2001C118.1 82.2001 119.4 81.4001 120.7 81.1001C120.2 81.6001 119.7 82.0001 119.3 82.5001C118.8 83.0001 118.4 83.4001 118 83.9001C117 84.9001 116.2 85.9001 115.3 86.9001Z" fill="#023047"/>
<path opacity="0.1" d="M114.9 81.3C115.6 81.4 116.3 81.6 116.9 82C117.5 82.3 118.1 82.7 118.6 83.2C119.6 84.1 120.4 85.4 120.7 86.7C120.2 86.2 119.8 85.7 119.3 85.3C118.8 84.8 118.4 84.4 117.9 84C116.8 83.1 115.9 82.3 114.9 81.3Z" fill="#023047"/>
</g>
<g opacity="0.1">
<path opacity="0.1" d="M140.5 86.9001C140.6 86.2001 140.8 85.5001 141.2 84.9001C141.5 84.3001 141.9 83.7001 142.4 83.2001C143.3 82.2001 144.6 81.4001 145.9 81.1001C145.4 81.6001 144.9 82.0001 144.5 82.5001C144 83.0001 143.6 83.4001 143.2 83.9001C142.3 84.9001 141.5 85.9001 140.5 86.9001Z" fill="#023047"/>
<path opacity="0.1" d="M140.1 81.3C140.8 81.4 141.5 81.6 142.1 82C142.7 82.3 143.3 82.7 143.8 83.2C144.8 84.1 145.6 85.4 145.9 86.7C145.4 86.2 145 85.7 144.5 85.3C144 84.8 143.6 84.4 143.1 84C142.1 83.1 141.1 82.3 140.1 81.3Z" fill="#023047"/>
</g>
<g opacity="0.1">
<path opacity="0.1" d="M77.5001 71.7001C77.6001 71.0001 77.8001 70.3001 78.2001 69.7001C78.5001 69.1001 78.9001 68.5001 79.4001 68.0001C80.3001 67.0001 81.6001 66.2001 82.9001 65.9001C82.4001 66.4001 81.9001 66.8001 81.5001 67.3001C81.0001 67.8001 80.6001 68.2001 80.2001 68.7001C79.2001 69.7001 78.4001 70.7001 77.5001 71.7001Z" fill="#023047"/>
<path opacity="0.1" d="M77.1 66.1001C77.8 66.2001 78.5 66.4001 79.1 66.8001C79.7 67.1001 80.3 67.5001 80.8 68.0001C81.8 68.9001 82.6 70.2001 82.9 71.5001C82.4 71.0001 82 70.5001 81.5 70.1001C81 69.6001 80.6 69.2001 80.1 68.8001C79 67.9001 78.1 67.1001 77.1 66.1001Z" fill="#023047"/>
</g>
<g opacity="0.1">
<path opacity="0.1" d="M102.9 71.7001C103 71.0001 103.2 70.3001 103.6 69.7001C103.9 69.1001 104.3 68.5001 104.8 68.0001C105.7 67.0001 107 66.2001 108.3 65.9001C107.8 66.4001 107.3 66.8001 106.9 67.3001C106.4 67.8001 106 68.2001 105.6 68.7001C104.6 69.7001 103.8 70.7001 102.9 71.7001Z" fill="#023047"/>
<path opacity="0.1" d="M102.4 66.1001C103.1 66.2001 103.8 66.4001 104.4 66.8001C105 67.1001 105.6 67.5001 106.1 68.0001C107.1 68.9001 107.9 70.2001 108.2 71.5001C107.7 71.0001 107.3 70.5001 106.8 70.1001C106.3 69.6001 105.9 69.2001 105.4 68.8001C104.4 67.9001 103.4 67.1001 102.4 66.1001Z" fill="#023047"/>
</g>
<g opacity="0.1">
<path opacity="0.1" d="M128.2 71.7001C128.3 71.0001 128.5 70.3001 128.9 69.7001C129.2 69.1001 129.6 68.5001 130.1 68.0001C131 67.0001 132.3 66.2001 133.6 65.9001C133.1 66.4001 132.6 66.8001 132.2 67.3001C131.7 67.8001 131.3 68.2001 130.9 68.7001C130 69.7001 129.2 70.7001 128.2 71.7001Z" fill="#023047"/>
<path opacity="0.1" d="M127.8 66.1001C128.5 66.2001 129.2 66.4001 129.8 66.8001C130.4 67.1001 131 67.5001 131.5 68.0001C132.5 68.9001 133.3 70.2001 133.6 71.5001C133.1 71.0001 132.7 70.5001 132.2 70.1001C131.7 69.6001 131.3 69.2001 130.8 68.8001C129.8 67.9001 128.8 67.1001 127.8 66.1001Z" fill="#023047"/>
</g>
<g opacity="0.1">
<path opacity="0.1" d="M153.6 71.7001C153.7 71.0001 153.9 70.3001 154.3 69.7001C154.6 69.1001 155 68.5001 155.5 68.0001C156.4 67.0001 157.7 66.2001 159 65.9001C158.5 66.4001 158 66.8001 157.6 67.3001C157.1 67.8001 156.7 68.2001 156.3 68.7001C155.4 69.7001 154.6 70.7001 153.6 71.7001Z" fill="#023047"/>
<path opacity="0.1" d="M153.2 66.1001C153.9 66.2001 154.6 66.4001 155.2 66.8001C155.8 67.1001 156.4 67.5001 156.9 68.0001C157.9 68.9001 158.7 70.2001 159 71.5001C158.5 71.0001 158.1 70.5001 157.6 70.1001C157.1 69.6001 156.7 69.2001 156.2 68.8001C155.2 67.9001 154.2 67.1001 153.2 66.1001Z" fill="#023047"/>
</g>
<path d="M66.4 45.1002C69.8794 45.1002 72.7 42.2796 72.7 38.8002C72.7 35.3208 69.8794 32.5002 66.4 32.5002C62.9206 32.5002 60.1 35.3208 60.1 38.8002C60.1 42.2796 62.9206 45.1002 66.4 45.1002Z" fill="#8ECAE6"/>
<path d="M70.9 38.8003C70.9 41.3003 68.9 43.3003 66.4 43.3003C63.9 43.3003 61.9 41.3003 61.9 38.8003C61.9 36.3003 63.9 34.3003 66.4 34.3003C68.8 34.3003 70.9 36.3003 70.9 38.8003Z" fill="#023047"/>
<path d="M151.4 99.7H132.3V97.2L129.6 94.8L132.8 91.3L136.3 94.4C136.3 94.4 144.2 96 148.4 97.2C149.4 97.5 150.2 97.7 150.6 97.9C152.4 98.8 151.4 99.7 151.4 99.7Z" fill="#FFDAAC"/>
<path d="M151.4 99.7001H132.3V97.2001C132.3 97.2001 148.2 98.5001 149 98.2001C149.8 97.9001 148.6 97.2001 148.3 97.1001C149.3 97.4001 150.1 97.6001 150.5 97.8001C152.4 98.8001 151.4 99.7001 151.4 99.7001Z" fill="#FFB703"/>
<path d="M152.3 102.9H132.1V100.3L129.2 97.7002L132.6 94.0002L136.3 97.3002C136.3 97.3002 144.7 99.0002 149.1 100.2C150.2 100.5 151 100.8 151.4 101C153.4 102 152.3 102.9 152.3 102.9Z" fill="#FFDAAC"/>
<path d="M152.3 102.9H132.1V100.3C132.1 100.3 148.9 101.7 149.8 101.4C150.6 101.1 149.3 100.4 149.1 100.3C150.2 100.6 151 100.9 151.4 101.1C153.4 102 152.3 102.9 152.3 102.9Z" fill="#FFB703"/>
<path d="M59.3 99.4001C59.3 99.4001 62 103.7 66.3 103.7C70.6 103.7 77.2 103.7 79.4 103.7C81.7 103.7 106.1 84.8001 108.6 84.8001C111.1 84.7001 129.8 96.3001 129.8 96.3001L133.9 91.8001C133.9 91.8001 115.3 75.9001 107.7 75.9001C100.1 75.9001 80.2 86.3001 80.2 86.3001C80.2 86.3001 60.9 94.2001 59.3 99.4001Z" fill="#023047"/>
<path d="M59.3 102C59.3 102 62 106.3 66.3 106.3C70.6 106.3 77.3 106.3 80.4 105.9C82.6 105.6 106.1 87.4001 108.6 87.3001C111.1 87.2001 129.8 98.8001 129.8 98.8001L133.9 94.3001C133.9 94.3001 115.3 78.4001 107.7 78.4001C100.1 78.4001 80.2 88.8001 80.2 88.8001C80.2 88.8001 60.9 96.7001 59.3 102Z" fill="#023047"/>
<path d="M61.8 23.3002C57.5 17.6002 41.9 11.9002 32.8 20.7002C23.7 29.5002 28.8 41.8002 26.9 46.0002C25 50.2002 16.6 55.3002 15.8 63.6002C15 71.9002 18.9 82.7001 33.4 85.6002C48 88.4002 55.5 79.9002 57.9 72.0002C60.4 63.8002 56.6 59.9002 57.4 56.8002C58.2 53.7002 72.3 37.2002 61.8 23.3002Z" fill="#FFB703"/>
<path d="M84.2 73.7002L84 74.3002C83.3 75.8002 81.5 76.4002 80 75.6002L58.2 64.8002C56.7 64.1002 56.1 62.3002 56.9 60.8002L57.2 60.2002C57.9 58.7002 59.7 58.1002 61.2 58.9002L82.9 69.7002C84.4 70.4002 85 72.2002 84.2 73.7002Z" fill="#8ECAE6"/>
<path d="M93.4 52.6002L94 52.9002C95.4 53.8002 95.8 55.6002 94.9 57.0002L83.9 74.4002C83 75.8002 81.2 76.2002 79.8 75.3002L79.2 75.0002C77.8 74.1002 77.4 72.3002 78.3 70.9002L89.2 53.5002C90.1 52.1002 92 51.7002 93.4 52.6002Z" fill="#8ECAE6"/>
<g opacity="0.1">
<path opacity="0.1" d="M84.3 73.7002L84 74.2002C83.3 75.7002 81.5 76.3002 80 75.6002L58.2 64.9002C56.7 64.2002 56.1 62.4002 56.8 60.9002L57.1 60.3002C57.8 58.8002 59.6 58.2002 61.1 58.9002L82.9 69.6002C84.4 70.4002 85 72.2002 84.3 73.7002Z" fill="#023047"/>
<path opacity="0.1" d="M93.3 52.5001L93.9 52.8001C95.3 53.7001 95.7 55.5001 94.8 56.9001L83.9 74.4001C83 75.8001 81.2 76.2001 79.8 75.3001L79.3 75.0001C77.9 74.1001 77.5 72.3001 78.4 70.9001L89.3 53.5001C90.1 52.0001 91.9 51.6001 93.3 52.5001Z" fill="#023047"/>
</g>
<path d="M54.6 58.1002C62 56.4002 66.5 63.4002 80.3 88.7002C80.3 88.7002 75.3 91.9002 71.2 97.6002C68.8 100.9 59.5 104.8 54.6 102.7C54.6 102.6 39.5 61.6002 54.6 58.1002Z" fill="#8ECAE6"/>
<path d="M50 53.6002C50 53.6002 51.7 60.1002 52.9 61.1002C53.9 61.9002 56.4 61.7002 56.6 60.1002C56.8 58.5002 55.7 52.7002 55.7 52.7002L50 53.6002Z" fill="#FFDAAC"/>
<path d="M68.3 46.0001C68 46.9001 67.6 48.0001 66.9 49.2001C62.2 57.3001 43.5 60.0001 36.1 48.7001C27.1 34.9001 35.1 19.5 48.7 17.8C57.5 16.7 68.8 22.2001 67.9 36.1C67.8 37.9 67.9 39.3001 68.1 40.5001C68.5 42.5001 68.9 43.9001 68.3 46.0001Z" fill="#FFDAAC"/>
<path d="M60.9999 38.8002C61.7999 38.6002 62.3999 40.8002 62.1999 41.1002C61.9999 41.7002 60.4999 41.9002 60.0999 41.3002C59.7999 41.0002 60.3999 39.0002 60.9999 38.8002Z" fill="#F8BD8A"/>
<path d="M53.2999 40.8002C53.1999 41.8002 52.2999 42.6002 51.2999 42.5002C50.2999 42.4002 49.4999 41.5002 49.5999 40.5002C49.6999 39.5002 50.5999 38.7002 51.5999 38.8002C52.5999 38.8002 53.3999 39.7002 53.2999 40.8002Z" fill="#023047"/>
<path d="M67.2 39.3C67.1 40.2 66.4 40.9 65.5 40.9C64.6 40.8 64 40 64.1 39.1C64.2 38.2 64.9 37.5 65.8 37.5C66.6 37.6 67.3 38.4 67.2 39.3Z" fill="#023047"/>
<path d="M60.6 45.8001C59.1 46.5001 57 45.9001 56.3 44.4001C56.1 43.9001 55.3 44.3001 55.6 44.7001C56.6 46.5001 59.1 47.4001 61 46.5001C61.4 46.3001 61 45.6001 60.6 45.8001Z" fill="#023047"/>
<path d="M51.9 34.6C50.1 34.2 48 35.4 47.4 37.2C47.2 37.9 48.2 38.2 48.4 37.6C48.8 36.4 50.3 35.4 51.5 35.7C52.3 35.8 52.6 34.7 51.9 34.6Z" fill="#FFB703"/>
<path d="M64.4 33.4001C66 32.8001 67.9 33.7001 68.6 35.1001C68.9 35.7001 67.9999 36.1001 67.6999 35.5001C67.1999 34.5001 65.8 33.8001 64.8 34.2001C64.2 34.5001 63.8 33.7001 64.4 33.4001Z" fill="#FFB703"/>
<path d="M50.6 46.3002C50.5 48.1002 48.9 49.4002 47.2 49.2002C45.4 49.1002 44.1 47.5002 44.3 45.8002C44.5 44.1002 46 42.7002 47.7 42.9002C49.5 43.0002 50.8 44.5002 50.6 46.3002Z" fill="#F8BD8A"/>
<path d="M68.3 46C67.1 45.5 66.4 44.3 66.5 43C66.6 41.9 67.3 41 68.2 40.5C68.5 42.5 68.9 43.9 68.3 46Z" fill="#F8BD8A"/>
<path d="M47.7 40.0002C47.9 40.4002 48.2999 40.6002 48.5999 40.5002C48.8999 40.5002 49.1 40.2002 49.4 39.9002C49.7 39.6002 49.9999 39.3002 50.2999 39.0002C50.6999 38.8002 51.0999 38.6002 51.5999 38.7002C51.1999 38.8002 50.8999 39.0002 50.5999 39.3002C50.2999 39.6002 50.0999 39.9002 49.7999 40.2002C49.6999 40.4002 49.4999 40.5002 49.2999 40.6002C49.0999 40.7002 48.7999 40.8002 48.5999 40.8002C48.0999 40.9002 47.7 40.4002 47.7 40.0002Z" fill="#023047"/>
<path d="M68.9 38.8001C68.9 39.2001 68.7 39.7001 68.1 39.7001C67.9 39.7001 67.6 39.6001 67.4 39.5001C67.2 39.4001 67.1 39.2001 67 39.1001L66.3 38.2001C66.1 37.9001 65.8 37.7001 65.5 37.6001C65.9 37.5001 66.3 37.7001 66.6 37.9001C66.9 38.1001 67.2 38.4001 67.4 38.7001C67.6 39.0001 67.8 39.3001 68.1 39.3001C68.5 39.4001 68.8 39.1001 68.9 38.8001Z" fill="#023047"/>
<path d="M36.6 45.6001C39 45.6001 42.5 26.9001 42.5 26.9001C42.5 26.9001 41.7 32.4001 42.5 32.9001C43.3 33.5001 54.8 32.2001 59.4 25.0001C59.4 25.0001 57.5 30.3001 58.8 30.5001C60.2 30.6001 64.3 25.0001 64.3 25.0001C64.3 25.0001 66.2 31.4001 67.8 32.1001C69.5 33.0001 67.5 17.1001 50 17.1001C32.5 17.1001 31.3 32.4001 32.1 37.9001C32.7 41.7001 35.4 45.6001 36.6 45.6001Z" fill="#FFB703"/>
<path d="M37.6 40.9002C37.6 40.9002 34.7 37.8002 31.6 39.1002C28.5 40.4002 31 47.1002 34 47.7002C37 48.3002 38.3 45.6002 38.3 45.6002L37.6 40.9002Z" fill="#FFDAAC"/>
<path d="M31.9 42.1002C32.6 41.6002 33.7 41.4002 34.6 41.8002C35.1 42.0002 35.5 42.3002 35.8 42.6002C36.1 43.0002 36.4 43.4002 36.6 43.8002L37 44.7002L36.1 44.5002C35.9 44.5002 35.7 44.5002 35.5 44.5002C35.3 44.5002 35.1 44.6002 34.9 44.7002C34.5 44.9002 34.1 45.2002 33.7 45.6002C33.8 45.1002 34.1 44.5002 34.5 44.1002C34.7 43.9002 35 43.8002 35.3 43.6002C35.6 43.5002 35.9 43.4002 36.2 43.4002L35.7 44.1002C35.5 43.8002 35.3 43.4002 35.1 43.2002C34.9 42.9002 34.6 42.7002 34.3 42.5002C33.6 42.3002 32.8 42.1002 31.9 42.1002Z" fill="#F8BD8A"/>
<path d="M38.4 88.2002L37.8 87.9002C36.3 87.2002 35.7 85.4002 36.4 83.9002L47.1 62.1002C47.8 60.6002 49.6 60.0002 51.1 60.7002L51.7 61.0002C53.2 61.7002 53.8 63.5002 53.1 65.0002L42.4 86.8002C41.7 88.3002 39.9 88.9002 38.4 88.2002Z" fill="#8ECAE6"/>
<path d="M60.5 95.4003L60.2 96.0003C59.5 97.5003 57.7 98.1003 56.2 97.4003L37.8 88.3003C36.3 87.6003 35.7 85.8003 36.4 84.3003L36.7 83.7003C37.4 82.2003 39.2 81.6003 40.7 82.3003L59.1 91.4003C60.6 92.1003 61.2 93.9003 60.5 95.4003Z" fill="#8ECAE6"/>
<g opacity="0.1">
<path opacity="0.1" d="M38.4 88.2002L37.8 87.9002C36.3 87.2002 35.7 85.4002 36.4 83.9002L47.1 62.1002C47.8 60.6002 49.6 60.0002 51.1 60.7002L51.7 61.0002C53.2 61.7002 53.8 63.5002 53.1 65.0002L42.4 86.8002C41.7 88.3002 39.9 88.9002 38.4 88.2002Z" fill="#023047"/>
<path opacity="0.1" d="M60.5 95.4003L60.2 96.0003C59.5 97.5003 57.7 98.1003 56.2 97.4003L37.8 88.3003C36.3 87.6003 35.7 85.8003 36.4 84.3003L36.7 83.7003C37.4 82.2003 39.2 81.6003 40.7 82.3003L59.1 91.4003C60.6 92.1003 61.2 93.9003 60.5 95.4003Z" fill="#023047"/>
</g>
<path d="M65.3 92.2001C63.6 91.9001 62 92.6002 60.8 93.8002C60 94.6002 61.4 95.6002 62.1 94.8002C62.9 94.0002 64 93.7002 65 93.9002C66.2 94.1002 66.4 92.4001 65.3 92.2001Z" fill="#FFDAAC"/>
<path d="M57.3 96.1002C57.3 96.1002 57.2 94.1002 59.1 92.7002C59.1 92.7002 65 94.0002 66 94.4002C67.3 95.0002 63 99.1002 62 98.7002C61 98.2002 57.3 96.1002 57.3 96.1002Z" fill="#FFDAAC"/>
<path d="M64.8 100.1C64.4 98.4 63.2 97.2 61.6 96.5C60.6 96.1 60.1 97.8 61.1 98.1C62.1 98.5 62.8 99.4001 63.1 100.5C63.4 101.6 65 101.1 64.8 100.1Z" fill="#FFDAAC"/>
<path d="M67.2 99.5001C66.5 97.9001 65.1 96.9001 63.4 96.6001C62.3 96.4001 62.2 98.1001 63.3 98.3001C64.4 98.5001 65.3 99.2001 65.7 100.2C66.2 101.2 67.7 100.5 67.2 99.5001Z" fill="#FFDAAC"/>
<path d="M68.4 97.9001C67.5 96.4001 66 95.6001 64.3 95.5001C63.2 95.4001 63.3 97.2001 64.4 97.2001C65.5 97.3001 66.5 97.9001 67 98.8001C67.6 99.7001 69 98.8001 68.4 97.9001Z" fill="#FFDAAC"/>
<path d="M68.8 95.9001C67.6 94.6001 66 94.1001 64.3 94.3001C63.2 94.4001 63.6 96.1001 64.7 96.0001C65.8 95.9001 66.8 96.3001 67.6 97.1001C68.3 97.9001 69.5 96.7001 68.8 95.9001Z" fill="#FFDAAC"/>
<path d="M90.6 54.3C90.6 54.3 91.7 55.9 94.2 55.8C94.2 55.8 96.9 54.4 98.2 52.6C98.8 51.8 98 51.3 98.5 50.2C99 48.9 93.3 48.4 92.7 49.3C92.1 50.2 90.6 54.3 90.6 54.3Z" fill="#FFDAAC"/>
<path d="M101.1 50.8C100 52.1 98.3 52.7 96.6 52.5C95.5 52.4 95.9 50.7 96.9 50.8C98 50.9 99 50.4 99.8 49.6C100.6 48.9 101.8 50 101.1 50.8Z" fill="#FFDAAC"/>
<path d="M96.2 45.4001C96.6 47.1001 96.1 48.7001 95 50.0001C94.3 50.8001 93.1 49.6001 93.8 48.7001C94.5 47.9001 94.7 46.8001 94.5 45.7001C94.3 44.7001 95.9 44.3001 96.2 45.4001Z" fill="#FFDAAC"/>
<path d="M98.1 45.8999C98.3 47.5999 97.6 49.1999 96.3 50.2999C95.5 50.9999 94.5 49.5999 95.3 48.8999C96.1 48.1999 96.5 47.0999 96.4 45.9999C96.3 44.9999 98 44.7999 98.1 45.8999Z" fill="#FFDAAC"/>
<path d="M101.1 48C100.3 49.6 98.8999 50.5 97.1999 50.8C96.0999 51 95.9999 49.3 97.0999 49.1C98.1999 48.9 99.0999 48.2 99.4999 47.2C99.9999 46.2 101.6 47 101.1 48Z" fill="#FFDAAC"/>
<path d="M97.1 36.9001L102 38.3001C103.2 38.7001 103.8 40.0001 103.3 41.1001L98.8 51.1001C98.3 52.1001 97.2 52.6001 96.2 52.2001L92.2 50.7001C91.1 50.3001 90.6 49.1001 91 48.0001L94.7 38.1001C95 37.2001 96 36.6001 97.1 36.9001Z" fill="#FFB703"/>
<path d="M97.3 37.8001L100.7 38.8001C101.9 39.2001 102.6 40.6001 102.1 41.8001L98.6 50.0001C98.1 51.1002 97 51.6002 95.9 51.2002L93.1 50.1001C92 49.7001 91.4 48.4002 91.9 47.2002L94.8 39.1001C95.1 38.1001 96.2 37.5001 97.3 37.8001Z" fill="#023047"/>
<path d="M91.3 52.1002C90.3 50.7002 90 49.0002 90.5 47.4002C90.8 46.4002 92.4 47.0002 92.1 48.1002C91.8 49.2002 92 50.3002 92.7 51.1002C93.4 52.0002 92 53.0002 91.3 52.1002Z" fill="#FFDAAC"/>
<path d="M35.3 39.2001C34.1 36.5001 33.6 33.4001 33.8 30.3001C33.9 28.8001 34.2 27.2001 34.9 25.7001C35.6 24.2001 36.7 22.8001 37.8 21.8001C40 19.6001 42.9 18.0001 45.9 17.3001C48.9 16.6001 52.1 16.8001 54.9 17.7001C51.9 18.1001 49.2 18.6001 46.7 19.7001C44.2 20.8001 42 22.3001 40 24.1001C39 25.1001 38.2 25.9001 37.6 27.0001C37 28.1001 36.6 29.4001 36.2 30.7001C35.7 33.4001 35.4 36.2001 35.3 39.2001Z" fill="#023047"/>
<path d="M35.4 47.7001C33.8 55.1001 40.2 58.6001 45.6 61.8001C50.9 65.0001 56.4 68.5001 59.5 74.1001C61.6 77.9001 63 81.0001 67 83.0001C73.2 86.2001 82 85.6002 86.6 79.8002C92.9 71.7002 88.5 60.0001 93.6 51.5001C93.9 51.1001 93.2 50.6001 92.9 51.1001C89.2 57.2001 90.4 65.2001 89 71.9002C86.7 82.6002 76 87.4001 66.4 81.7001C62.2 79.2001 61.4 75.0002 58.7 71.4002C56.8 68.9002 54.4 66.8001 51.8 64.9002C46 60.7002 34.3 57.0002 36.2 47.9002C36.3 47.5002 35.5 47.2001 35.4 47.7001Z" fill="#023047"/>
<path d="M68.4 44.7001C70.8 51.4001 66.7 56.1001 64.6 62.0001C62.6 67.6001 62.4 74.4001 63.4 80.2001C63.5 80.7001 64.3 80.5001 64.2 80.0001C62.7 71.5001 64.5 63.9001 68.2 56.3001C70 52.5001 70.6 48.6001 69.2 44.5001C69 43.9001 68.2 44.2001 68.4 44.7001Z" fill="#023047"/>
<path d="M41.6 42.5002C41.6 46.0002 38.8 48.8002 35.3 48.8002C31.8 48.8002 29 46.0002 29 42.5002C29 39.0002 31.8 36.2002 35.3 36.2002C38.8 36.2002 41.6 39.0002 41.6 42.5002Z" fill="#8ECAE6"/>
<path d="M39.8 42.5002C39.8 45.0002 37.8 47.0002 35.3 47.0002C32.8 47.0002 30.8 45.0002 30.8 42.5002C30.8 40.0002 32.8 38.0002 35.3 38.0002C37.8 38.0002 39.8 40.0002 39.8 42.5002Z" fill="#023047"/>
</g>
<defs>
<clipPath id="clip0">
<rect width="219.8" height="147.8" fill="white"/>
</clipPath>
</defs>
</svg>
