<svg width="232" height="30" viewBox="0 0 232 30" fill="none" xmlns="http://www.w3.org/2000/svg">
<g clip-path="url(#clip0)">
<path d="M62.8394 26.5006C62.1791 25.8402 61.8709 24.8498 61.8709 23.5292C61.8709 22.9789 61.9589 22.2746 62.135 21.3722L65.3485 6.33915C65.5466 5.43673 66.295 4.7324 67.1974 4.62235L67.4615 4.57833C68.9802 4.38023 70.2348 5.72286 69.9046 7.21956L66.7352 22.0105C66.6471 22.3406 66.6031 22.6928 66.6031 23.067C66.6031 23.5072 66.7132 23.8153 66.9113 24.0134C67.1093 24.2115 67.4615 24.2995 67.9457 24.2995C68.584 24.2995 69.1783 24.0354 69.7286 23.4851C70.1908 23.0449 70.5429 22.4727 70.7851 21.8124C70.8731 21.5703 71.1152 21.3942 71.3793 21.3942C71.8415 21.3942 72.1497 21.8564 71.9736 22.2746C71.2033 24.1675 70.2788 25.4881 69.1563 26.2364C67.8797 27.0948 66.6031 27.513 65.3485 27.513C64.3361 27.491 63.4777 27.1609 62.8394 26.5006Z" fill="#FFB703"/>
<path d="M71.8636 26.2144C70.9612 25.378 70.499 24.0354 70.499 22.2305C70.499 20.7118 70.8071 19.039 71.4014 17.2122C71.9957 15.3853 72.9641 13.8006 74.3067 12.48C75.6494 11.1594 77.3442 10.4771 79.4351 10.4771C81.8563 10.4771 83.0668 11.5335 83.0668 13.6465C83.0668 14.8791 82.7147 16.0236 82.0103 17.0581C81.306 18.0926 80.3596 18.929 79.193 19.5453C78.0265 20.1616 76.7719 20.5357 75.4513 20.6238C75.4073 21.2841 75.3852 21.7243 75.3852 21.9444C75.3852 23.0229 75.5613 23.7492 75.9355 24.1454C76.3097 24.5416 76.904 24.7177 77.7624 24.7177C78.9509 24.7177 79.9634 24.4536 80.8218 23.8813C81.6582 23.331 82.6046 22.4947 83.6171 21.3721H84.7396C82.2965 25.444 79.2591 27.491 75.6494 27.491C74.0206 27.491 72.766 27.0508 71.8636 26.2144ZM78.0485 18.1806C78.7748 17.6524 79.3691 16.9921 79.8313 16.1777C80.2715 15.3633 80.5136 14.5049 80.5136 13.6025C80.5136 12.7001 80.2275 12.2599 79.6772 12.2599C78.8849 12.2599 78.1145 12.9422 77.3442 14.3288C76.5958 15.7155 76.0456 17.3002 75.7154 19.0611C76.5298 18.995 77.3221 18.7089 78.0485 18.1806Z" fill="#FFB703"/>
<path d="M92.5752 26.4125C91.9369 25.7081 91.6288 24.8057 91.6288 23.7492C91.6288 23.287 91.6728 22.7588 91.8049 22.1865C91.9149 21.6142 92.025 21.042 92.1571 20.4917C92.2671 19.9414 92.3551 19.5893 92.3992 19.4352C92.5752 18.6649 92.7293 17.9165 92.9054 17.1682C93.0595 16.4198 93.1475 15.8035 93.1475 15.3413C93.1475 14.2188 92.7513 13.6465 91.959 13.6465C91.3867 13.6465 90.8805 13.9326 90.4402 14.4829C90 15.0332 89.6479 15.7815 89.3838 16.6839L87.5129 25.5321C87.2928 26.5445 86.3904 27.2709 85.3559 27.2709H85.0918C83.6831 27.2709 82.6486 25.9723 82.9347 24.6076L85.5099 12.502C85.73 11.4895 86.6325 10.7632 87.6669 10.7632H88.8775C89.7799 10.7632 90.4623 11.5996 90.2642 12.48C91.3647 11.2474 92.6413 10.6311 94.138 10.6311C95.2605 10.6311 96.1409 10.9392 96.8012 11.5555C97.4615 12.1718 97.7917 13.0963 97.7917 14.3508C97.7917 14.9891 97.7036 15.6935 97.5496 16.4858C97.3955 17.2782 97.1754 18.2246 96.8893 19.3472C96.7132 20.0295 96.5591 20.6898 96.405 21.3501C96.251 22.0104 96.1849 22.5166 96.1849 22.8908C96.1849 23.331 96.295 23.6832 96.4931 23.9253C96.6912 24.1674 97.0213 24.2775 97.5055 24.2775C98.1659 24.2775 98.6941 24.0354 99.0903 23.5731C99.4865 23.1109 99.8827 22.3626 100.279 21.3721H101.665C100.851 23.7932 99.9047 25.422 98.8482 26.2364C97.7697 27.0728 96.6692 27.469 95.5246 27.469C94.182 27.491 93.2135 27.1168 92.5752 26.4125Z" fill="#FFB703"/>
<path d="M101.115 26.1924C100.279 25.334 99.8607 23.9914 99.8607 22.1645C99.8607 20.5358 100.191 18.819 100.829 17.0361C101.467 15.2533 102.458 13.7346 103.734 12.48C105.033 11.2474 106.552 10.6091 108.335 10.6091C109.237 10.6091 109.897 10.7632 110.338 11.0714C110.778 11.3795 110.998 11.7977 110.998 12.2819V12.414L112.296 6.33915C112.495 5.43673 113.243 4.7324 114.145 4.62235L114.387 4.57833C115.906 4.38023 117.161 5.72286 116.831 7.21956L113.727 22.0105C113.639 22.3406 113.595 22.6928 113.595 23.067C113.595 23.5072 113.705 23.8153 113.903 24.0134C114.101 24.2115 114.453 24.2995 114.938 24.2995C115.554 24.2995 116.082 24.0354 116.544 23.5072C116.985 22.9789 117.359 22.2746 117.623 21.3942H119.01C117.667 25.334 115.444 27.3149 112.385 27.3149C111.482 27.3149 110.756 27.0728 110.183 26.5886C109.633 26.1044 109.281 25.4 109.149 24.4756C108.577 25.356 107.894 26.0824 107.08 26.6546C106.266 27.2269 105.341 27.513 104.263 27.513C102.986 27.491 101.952 27.0508 101.115 26.1924ZM108.004 23.5512C108.533 23.067 108.907 22.3846 109.105 21.5482V21.3722L110.734 13.8006C110.536 13.0303 110.073 12.6341 109.391 12.6341C108.511 12.6341 107.718 13.1403 107.014 14.1748C106.31 15.1873 105.759 16.4419 105.363 17.8725C104.967 19.3252 104.769 20.5798 104.769 21.6803C104.769 22.7808 104.923 23.4851 105.253 23.7933C105.561 24.1014 105.958 24.2555 106.42 24.2555C106.926 24.2775 107.454 24.0354 108.004 23.5512Z" fill="#FFB703"/>
<path d="M118.569 26.1703C117.623 25.3339 117.139 24.0133 117.139 22.2085C117.139 20.6898 117.447 19.017 118.041 17.2122C118.635 15.3853 119.604 13.8226 120.946 12.502C122.289 11.1813 124.006 10.499 126.097 10.499C128.694 10.499 130.103 11.9957 130.301 14.9451C130.785 14.835 131.203 14.5709 131.599 14.1307C131.974 13.6905 132.326 13.2063 132.656 12.656C133.14 12.656 133.448 13.1843 133.228 13.6025C132.832 14.3508 132.458 14.9671 132.128 15.4513C131.665 16.1337 131.049 16.6619 130.301 17.0801C130.169 19.1491 129.751 20.9759 129.024 22.5386C128.298 24.1014 127.373 25.3119 126.229 26.1483C125.084 27.0067 123.83 27.4249 122.421 27.4249C120.814 27.4249 119.516 27.0067 118.569 26.1703ZM126.031 22.4726C126.735 21.152 127.219 19.5232 127.484 17.5863C126.955 17.3882 126.691 16.904 126.691 16.0896C126.691 15.2312 126.999 14.659 127.616 14.3728C127.572 13.6685 127.461 13.1843 127.263 12.8981C127.065 12.634 126.779 12.4799 126.361 12.4799C125.635 12.4799 124.93 13.0082 124.27 14.0427C123.61 15.0992 123.081 16.3538 122.663 17.8284C122.245 19.3251 122.047 20.6237 122.047 21.7463C122.047 22.8028 122.157 23.5071 122.399 23.8813C122.641 24.2334 123.081 24.4315 123.72 24.4315C124.578 24.4535 125.326 23.7932 126.031 22.4726Z" fill="#FFB703"/>
<path d="M157.99 26.4123C157.351 25.708 157.043 24.8056 157.043 23.7491C157.043 23.2869 157.087 22.7586 157.219 22.1864C157.329 21.6141 157.44 21.0418 157.572 20.4916C157.682 19.9413 157.77 19.5892 157.814 19.4351C157.99 18.6647 158.144 17.9164 158.32 17.168C158.474 16.4197 158.54 15.8034 158.54 15.3412C158.54 14.2186 158.144 13.6464 157.351 13.6464C156.779 13.6464 156.273 13.9325 155.833 14.4828C155.393 15.033 155.04 15.7814 154.776 16.6838L152.905 25.5319C152.685 26.5444 151.783 27.2707 150.748 27.2707H150.484C149.076 27.2707 148.041 25.9721 148.327 24.6075L150.176 15.8694C150.242 15.6053 150.286 15.3412 150.286 15.033C150.286 14.0646 149.956 13.5803 149.296 13.5803C148.679 13.5803 148.151 13.8665 147.689 14.4167C147.227 14.967 146.875 15.7153 146.61 16.6398L144.74 25.4879C144.519 26.5004 143.617 27.2267 142.583 27.2267H142.318C140.91 27.2267 139.875 25.9281 140.161 24.5635L142.737 12.4578C142.957 11.4454 143.859 10.719 144.894 10.719H146.104C147.007 10.719 147.689 11.5554 147.491 12.4358C148.613 11.1812 149.956 10.5649 151.519 10.5649C153.456 10.5649 154.578 11.5114 154.908 13.4043C156.119 11.5334 157.66 10.587 159.508 10.587C160.631 10.587 161.511 10.8951 162.172 11.5114C162.832 12.1277 163.162 13.0521 163.162 14.3067C163.162 14.945 163.074 15.6493 162.942 16.4417C162.788 17.2341 162.568 18.1805 162.282 19.303C162.106 19.9853 161.952 20.6456 161.798 21.306C161.643 21.9663 161.577 22.4725 161.577 22.8467C161.577 23.2869 161.665 23.639 161.864 23.8812C162.062 24.1233 162.392 24.2333 162.898 24.2333C163.558 24.2333 164.087 23.9912 164.483 23.529C164.879 23.0668 165.275 22.3184 165.671 21.328H167.058C166.244 23.7491 165.297 25.3779 164.241 26.1922C163.162 27.0286 162.062 27.4248 160.917 27.4248C159.597 27.4908 158.606 27.1167 157.99 26.4123Z" fill="#FFB703"/>
<path d="M166.398 26.5004C165.737 25.8401 165.429 24.8497 165.429 23.529C165.429 22.9788 165.517 22.2745 165.693 21.372L167.564 12.5239C167.784 11.5114 168.687 10.7851 169.721 10.7851H169.985C171.394 10.7851 172.428 12.0837 172.142 13.4483L170.338 22.0103C170.271 22.3405 170.227 22.6486 170.227 22.9348C170.227 23.8372 170.558 24.2774 171.218 24.2774C171.834 24.2774 172.362 24.0133 172.803 23.507C173.243 23.0008 173.595 22.2745 173.859 21.372L175.73 12.5239C175.95 11.5114 176.853 10.7851 177.887 10.7851H178.151C179.56 10.7851 180.594 12.0837 180.308 13.4483L178.503 22.0103C178.415 22.3405 178.371 22.6927 178.371 23.0668C178.371 23.507 178.481 23.8152 178.679 24.0133C178.877 24.2114 179.23 24.2994 179.714 24.2994C180.33 24.2994 180.858 24.0353 181.321 23.507C181.761 22.9788 182.135 22.2745 182.399 21.3941H183.786C182.971 23.7712 181.959 25.3779 180.77 26.2363C179.56 27.0947 178.371 27.5129 177.161 27.5129C176.214 27.5129 175.466 27.2488 174.894 26.7205C174.343 26.1923 173.991 25.4219 173.881 24.3874C173.133 25.598 172.34 26.4344 171.526 26.8746C170.69 27.3148 169.853 27.5349 168.995 27.5349C167.894 27.4909 167.058 27.1607 166.398 26.5004ZM177.975 2.53125C178.877 2.53125 179.428 3.52171 178.944 4.29207L176.082 8.78217C174.938 8.78217 174.189 7.59361 174.674 6.55913L175.994 3.78584C176.346 3.01548 177.117 2.53125 177.975 2.53125Z" fill="#FFB703"/>
<path d="M183.456 26.8746C182.729 26.4784 182.201 25.9501 181.827 25.2898C181.475 24.6515 181.299 23.9692 181.299 23.2649C181.299 22.5385 181.475 21.9003 181.805 21.372C182.157 20.8438 182.553 20.4476 183.037 20.2055C183.896 18.6647 184.644 17.102 185.282 15.5393C185.767 14.3507 186.229 13.0741 186.669 11.7535C186.933 10.9611 187.638 10.3669 188.474 10.2568L189.597 10.1027C190.873 9.92666 192.018 10.8951 192.084 12.1717C192.194 14.3067 192.348 16.5518 192.546 18.9289C192.656 20.2495 192.722 21.2179 192.722 21.8122C192.722 22.3184 192.678 22.7366 192.59 23.0668C193.624 22.4725 194.417 21.9223 194.967 21.416H196.354C194.945 23.0448 193.25 24.4094 191.313 25.554C190.675 26.2363 189.883 26.7425 188.958 27.0507C188.012 27.3588 187.087 27.5349 186.141 27.5349C185.062 27.4909 184.182 27.2708 183.456 26.8746ZM187.109 24.1453C187.66 23.6611 187.946 22.8907 187.946 21.8122C187.946 21.1519 187.88 20.2275 187.748 19.0389C187.528 16.5297 187.373 14.857 187.307 13.9766C186.779 15.7154 185.877 17.8063 184.622 20.2275C185.128 20.4916 185.393 20.8878 185.393 21.394C185.393 21.8122 185.26 22.1864 184.974 22.5165C184.688 22.8467 184.358 23.0228 183.94 23.0228C183.478 23.0228 183.17 22.8907 183.059 22.5826C183.059 23.3749 183.214 23.9692 183.544 24.3434C183.852 24.7176 184.38 24.8936 185.084 24.8936C185.877 24.8716 186.559 24.6295 187.109 24.1453Z" fill="#FFB703"/>
<path d="M195.693 26.5005C195.033 25.8402 194.725 24.8498 194.725 23.5291C194.725 22.9789 194.813 22.2746 194.989 21.3721L196.86 12.524C197.08 11.5115 197.982 10.7852 199.017 10.7852H199.281C200.69 10.7852 201.724 12.0838 201.438 13.4484L199.633 22.0104C199.545 22.3406 199.501 22.6928 199.501 23.0669C199.501 23.5071 199.611 23.8153 199.809 24.0134C200.007 24.2115 200.36 24.2995 200.844 24.2995C201.482 24.2995 202.076 24.0354 202.627 23.4851C203.177 22.9569 203.573 22.2525 203.815 21.3941H205.202C204.387 23.7713 203.331 25.378 202.054 26.2364C200.778 27.0948 199.523 27.513 198.247 27.513C197.19 27.491 196.332 27.1608 195.693 26.5005ZM198.643 8.232C198.159 7.74778 197.916 7.17551 197.894 6.5152C197.872 5.78886 198.137 5.06252 198.643 4.53428C199.149 4.02804 199.765 3.76392 200.492 3.76392C201.218 3.76392 201.834 4.02804 202.362 4.53428C202.869 5.06252 203.133 5.67881 203.133 6.40515C203.133 7.13149 202.869 7.74778 202.362 8.25401C201.834 8.76025 201.108 9.04638 200.382 9.00236C199.699 8.95834 199.127 8.71623 198.643 8.232Z" fill="#FFB703"/>
<path d="M204.718 26.2144C203.815 25.378 203.353 24.0354 203.353 22.2305C203.353 20.7118 203.661 19.039 204.255 17.2122C204.85 15.3853 205.818 13.8006 207.161 12.48C208.481 11.1594 210.176 10.4771 212.223 10.4771C213.544 10.4771 214.49 10.7632 215.04 11.3355C215.613 11.9077 215.877 12.6341 215.877 13.5145C215.877 14.2848 215.701 14.8791 215.371 15.2973C215.04 15.7155 214.622 15.9356 214.116 15.9356C214.116 15.9356 214.116 15.9356 214.094 15.9356C213.5 15.9356 213.059 15.3413 213.192 14.747C213.302 14.3288 213.346 13.9547 213.346 13.5805C213.346 13.1623 213.258 12.8321 213.104 12.59C212.949 12.3479 212.707 12.2379 212.421 12.2379C211.761 12.2379 211.101 12.7881 210.44 13.8666C209.78 14.9451 209.23 16.2658 208.812 17.7845C208.393 19.3252 208.195 20.7118 208.195 21.9444C208.195 23.0229 208.371 23.7492 208.745 24.1454C209.12 24.5416 209.714 24.7177 210.572 24.7177C211.761 24.7177 212.773 24.4536 213.632 23.8813C214.446 23.3531 215.327 22.5827 216.273 21.5262C216.361 21.4162 216.493 21.3721 216.647 21.3721C217.043 21.3721 217.285 21.8123 217.065 22.1425C214.71 25.7082 211.849 27.469 208.481 27.469C206.875 27.491 205.62 27.0508 204.718 26.2144Z" fill="#FFB703"/>
<path d="M217.285 26.1924C216.449 25.334 216.031 23.9914 216.031 22.1645C216.031 20.5358 216.361 18.819 216.999 17.0361C217.638 15.2533 218.628 13.7346 219.905 12.48C221.203 11.2474 222.722 10.6091 224.505 10.6091C225.407 10.6091 226.068 10.7632 226.53 11.0713C226.97 11.3795 227.19 11.7977 227.19 12.2819V12.524C227.41 11.5116 228.291 10.7632 229.347 10.7632H229.589C230.998 10.7632 232.032 12.0618 231.746 13.4264L229.941 21.9884C229.853 22.3186 229.809 22.6708 229.809 23.0449C229.809 23.4851 229.919 23.7933 230.117 23.9914C230.316 24.1895 230.668 24.2775 231.152 24.2775C231.46 24.2775 231.68 24.6077 231.57 24.8938C231.196 25.7302 230.844 26.3465 230.492 26.7427C230.051 27.2489 229.413 27.491 228.577 27.491C227.674 27.491 226.948 27.2269 226.376 26.6766C225.825 26.1484 225.473 25.378 225.341 24.4096C223.999 26.4565 222.348 27.469 220.433 27.469C219.178 27.491 218.122 27.0508 217.285 26.1924ZM224.219 23.5072C224.747 23.0009 225.121 22.2746 225.319 21.3722L226.904 13.9107C226.904 13.6245 226.794 13.3384 226.574 13.0743C226.354 12.8102 226.002 12.6561 225.539 12.6561C224.659 12.6561 223.867 13.1623 223.162 14.1968C222.458 15.2093 221.908 16.4639 221.511 17.8945C221.115 19.3472 220.917 20.6018 220.917 21.7023C220.917 22.8028 221.071 23.5071 221.401 23.8153C221.71 24.1234 222.106 24.2775 222.568 24.2775C223.118 24.2775 223.668 24.0134 224.219 23.5072Z" fill="#FFB703"/>
<path d="M0 3.25767V28.0632C0 29.3178 1.25459 30.1982 2.44314 29.736C5.98679 28.3714 13.0741 26.6766 21.8122 29.8681C22.9787 30.3083 24.2333 29.4279 24.2333 28.1733V3.25767C24.2333 2.4653 23.7051 1.76097 22.9567 1.54087C19.7872 0.572414 11.1592 -1.3865 1.2766 1.54087C0.528247 1.76097 0 2.4653 0 3.25767Z" fill="#FFB703"/>
<path d="M27.2047 3.25767V28.0632C27.2047 29.3178 28.4593 30.1982 29.6479 29.736C33.1915 28.3714 40.2788 26.6766 49.0169 29.8681C50.1834 30.3083 51.438 29.4279 51.438 28.1733V3.25767C51.438 2.4653 50.9098 1.76097 50.1614 1.54087C46.9919 0.572414 38.3639 -1.3865 28.4813 1.54087C27.733 1.76097 27.2047 2.4653 27.2047 3.25767Z" fill="#FFB703"/>
<path d="M15.9134 19.039C14.8129 19.5893 13.6244 19.4132 13.2502 18.6648C12.876 17.9165 13.4483 16.86 14.5488 16.3097C14.967 16.1116 15.3852 16.0016 15.7593 16.0016C15.8694 16.0016 15.9795 15.8915 15.9795 15.7815V12.0397C15.9795 11.9517 15.8914 11.8637 15.8034 11.8637H9.99266C9.90462 11.8637 9.81658 11.9517 9.81658 12.0397V16.904C9.81658 16.904 9.81658 16.926 9.83859 16.926C10.2128 17.6744 9.64049 18.7309 8.53998 19.2811C7.43947 19.8314 6.25091 19.6553 5.87674 18.907C5.50256 18.1586 6.07483 17.1021 7.17534 16.5519C7.57153 16.3538 7.98972 16.2437 8.3639 16.2437C8.47395 16.2437 8.584 16.1337 8.584 16.0236V9.88274C8.584 9.59661 8.82611 9.35449 9.11225 9.35449H16.7498C17.0359 9.35449 17.2781 9.59661 17.2781 9.88274V16.6839C17.2781 16.7059 17.2781 16.7499 17.3001 16.772C17.5202 17.5203 16.9479 18.5108 15.9134 19.039Z" fill="#023047"/>
<path d="M43.1511 18.6845C42.0506 19.2348 40.862 19.0587 40.4878 18.3103C40.1137 17.562 40.6859 16.5055 41.7865 15.9552C42.2046 15.7572 42.6228 15.6471 42.997 15.6471C43.1071 15.6471 43.2171 15.537 43.2171 15.427V11.6853C43.2171 11.5972 43.1291 11.5092 43.041 11.5092H37.2303C37.1423 11.5092 37.0542 11.5972 37.0542 11.6853V16.5495C37.0542 16.5495 37.0542 16.5715 37.0763 16.5715C37.4504 17.3199 36.8782 18.3764 35.7777 18.9266C34.6771 19.4769 33.4886 19.3008 33.1144 18.5525C32.7402 17.8041 33.3125 16.7476 34.413 16.1974C34.8092 15.9993 35.2274 15.8892 35.6016 15.8892C35.7116 15.8892 35.8217 15.7792 35.8217 15.6691V9.52825C35.8217 9.24211 36.0638 9 36.3499 9H43.9875C44.2736 9 44.5157 9.24211 44.5157 9.52825V16.3294C44.5157 16.3514 44.5157 16.3954 44.5377 16.4175C44.7799 17.1658 44.2076 18.1563 43.1511 18.6845Z" fill="#023047"/>
</g>
<defs>
<clipPath id="clip0">
<rect width="231.79" height="30" fill="white"/>
</clipPath>
</defs>
</svg>
