<svg width="22" height="24" viewBox="0 0 22 24" fill="none" xmlns="http://www.w3.org/2000/svg">
<g clip-path="url(#clip0)">
<path d="M0.300781 20.7516L4.58477 16.0781C4.77813 15.8672 5.04024 15.75 5.31524 15.75H6.01562C4.82969 14.0953 4.125 12.0141 4.125 9.75C4.125 4.36406 8.12539 0 13.0625 0C17.9996 0 22 4.36406 22 9.75C22 15.1359 17.9996 19.5 13.0625 19.5C10.9871 19.5 9.0793 18.7313 7.5625 17.4375V18.2016C7.5625 18.5016 7.45508 18.7875 7.26172 18.9984L2.97773 23.6719C2.57383 24.1125 1.9207 24.1125 1.52109 23.6719L0.305079 22.3453C-0.0988274 21.9047 -0.0988274 21.1922 0.300781 20.7516ZM13.0625 15.75C16.1004 15.75 18.5625 13.0688 18.5625 9.75C18.5625 6.43594 16.1047 3.75 13.0625 3.75C10.0246 3.75 7.5625 6.43125 7.5625 9.75C7.5625 13.0641 10.0203 15.75 13.0625 15.75Z" fill="#FFB703"/>
</g>
<defs>
<clipPath id="clip0">
<rect width="22" height="24" fill="white" transform="matrix(-1 0 0 1 22 0)"/>
</clipPath>
</defs>
</svg>
